<?xml version="1.0" encoding="UTF-8" standalone="no"?>
<svg width="40px" height="40px" viewBox="0 0 40 40" version="1.1" xmlns="http://www.w3.org/2000/svg" xmlns:xlink="http://www.w3.org/1999/xlink" xmlns:sketch="http://www.bohemiancoding.com/sketch/ns">
    <!-- Generator: Sketch 3.3.2 (12043) - http://www.bohemiancoding.com/sketch -->
    <title>Shape</title>
    <desc>Created with Sketch.</desc>
    <defs></defs>
    <g id="Page-1" stroke="none" stroke-width="1" fill="none" fill-rule="evenodd" sketch:type="MSPage">
        <g id="Chimp" sketch:type="MSArtboardGroup" transform="translate(-1248.000000, -44.000000)" fill="#FFFFFF">
            <g id="Header" sketch:type="MSLayerGroup">
                <path d="M1268,44 C1256.95536,44 1248,53.1875 1248,64.5089286 C1248,73.5714286 1253.73214,81.25 1261.67857,83.9642857 C1261.80357,83.9910714 1261.91071,84 1262.01786,84 C1262.75893,84 1263.04464,83.4553571 1263.04464,82.9821429 C1263.04464,82.4910714 1263.02679,81.2053571 1263.01786,79.4910714 C1262.26786,79.6607143 1261.59821,79.7321429 1261,79.7321429 C1257.15179,79.7321429 1256.27679,76.7410714 1256.27679,76.7410714 C1255.36607,74.375 1254.05357,73.7410714 1254.05357,73.7410714 C1252.3125,72.5178571 1254.04464,72.4821429 1254.17857,72.4821429 L1254.1875,72.4821429 C1256.19643,72.6607143 1257.25,74.6071429 1257.25,74.6071429 C1258.25,76.3571429 1259.58929,76.8482143 1260.78571,76.8482143 C1261.72321,76.8482143 1262.57143,76.5446429 1263.07143,76.3125 C1263.25,74.9910714 1263.76786,74.0892857 1264.33929,73.5714286 C1259.90179,73.0535714 1255.23214,71.2946429 1255.23214,63.4375 C1255.23214,61.1964286 1256.00893,59.3660714 1257.28571,57.9375 C1257.08036,57.4196429 1256.39286,55.3303571 1257.48214,52.5089286 C1257.48214,52.5089286 1257.625,52.4642857 1257.92857,52.4642857 C1258.65179,52.4642857 1260.28571,52.7410714 1262.98214,54.6160714 C1264.58036,54.1607143 1266.28571,53.9375 1267.99107,53.9285714 C1269.6875,53.9375 1271.40179,54.1607143 1273,54.6160714 C1275.69643,52.7410714 1277.33036,52.4642857 1278.05357,52.4642857 C1278.35714,52.4642857 1278.5,52.5089286 1278.5,52.5089286 C1279.58929,55.3303571 1278.90179,57.4196429 1278.69643,57.9375 C1279.97321,59.375 1280.75,61.2053571 1280.75,63.4375 C1280.75,71.3125 1276.07143,73.0446429 1271.61607,73.5535714 C1272.33036,74.1875 1272.97321,75.4375 1272.97321,77.3482143 C1272.97321,80.0892857 1272.94643,82.3035714 1272.94643,82.9732143 C1272.94643,83.4553571 1273.22321,84 1273.96429,84 C1274.07143,84 1274.19643,83.9910714 1274.32143,83.9642857 C1282.27679,81.25 1288,73.5625 1288,64.5089286 C1288,53.1875 1279.04464,44 1268,44 L1268,44 Z" id="Shape" sketch:type="MSShapeGroup"></path>
            </g>
        </g>
    </g>
</svg>