<?xml version="1.0" encoding="UTF-8" standalone="no"?>
<svg width="80px" height="80px" viewBox="0 0 80 80" version="1.1" xmlns="http://www.w3.org/2000/svg" xmlns:xlink="http://www.w3.org/1999/xlink" xmlns:sketch="http://www.bohemiancoding.com/sketch/ns">
    <!-- Generator: Sketch 3.3.2 (12043) - http://www.bohemiancoding.com/sketch -->
    <title>Oval 1 + Oval 1 Copy + Imported Layers</title>
    <desc>Created with Sketch.</desc>
    <defs></defs>
    <g id="Page-1" stroke="none" stroke-width="1" fill="none" fill-rule="evenodd" sketch:type="MSPage">
        <g id="Chimp" sketch:type="MSArtboardGroup" transform="translate(-149.000000, -27.000000)">
            <g id="Header" sketch:type="MSLayerGroup">
                <g id="Logo" transform="translate(149.000000, 22.000000)" sketch:type="MSShapeGroup">
                    <g id="Oval-1-+-Oval-1-Copy-+-Imported-Layers" transform="translate(0.000000, 5.000000)">
                        <circle id="Oval-1" opacity="0.6" fill="#FFFFFF" cx="40" cy="40" r="40"></circle>
                        <circle id="Oval-1-Copy" stroke="#FF8047" stroke-width="3" fill="#FFFFFF" cx="40" cy="40" r="35"></circle>
                        <g id="Imported-Layers" transform="translate(37.000000, 36.500000) scale(-1, 1) translate(-37.000000, -36.500000) translate(10.000000, 18.000000)" fill="#FF8047">
                            <path d="M35.9018085,33.3409362 L37.6274255,35.9789574 L39.1585957,34.0352766 L38.2115532,32.1136383 L38.0328511,29.0135106 L37.4920213,27.9310638 L36.3757234,27.9003617 L32.3537447,24.6223191 L29.8534894,15.8981915 L34.0415745,11.0551277 L36.0033617,5.35397872 L39.7309149,3.20089362 L43.0979149,6.00265957 L42.1170213,16.4461064 L44.7865319,22.3283191 L49.4847447,24.9639787 L53.5807234,23.5398723 L49.9988085,23.6752766 L46.3484043,21.1388085 L44.3189149,16.5752128 L45.2935106,5.02176596 L40.2260851,0.390468085 L33.9093191,3.72991489 L31.9475319,9.61291489 L28.9741489,12.9248085 L24.1058936,11.3038936 L18.0205745,12.654 L12.2761277,16.169 L10.2466383,15.923383 L8.17385106,13.4876809 L4.96902128,12.9429149 L2.15859574,14.7267872 L2.20189362,15.5604681 L2.81042553,16.1012979 L2.58606383,16.959383 L1.29185106,17.860766 L1.32255319,18.5031489 L0.738425532,18.7401064 L1.39025532,19.9241064 L2.8442766,20.6987447 L6.32542553,21.1726596 L10.9693191,22.2763617 L10.4741489,26.0188723 L5.55944681,34.0415745 L2.94582979,33.6786596 L0.848638298,36.3851702 L1.55006383,36.6095319 L3.57640426,35.6191915 L6.37187234,36.6095319 L15.7911277,22.3220213 L20.9971064,22.5928298 L25.8401702,20.9695532 L28.6356383,26.0188723 L35.2161277,30.1636596 L35.9018085,33.3409362 Z" id="Fill-1"></path>
                            <path d="M19.2384255,23.1651489 L21.0986596,23.1651489 L25.6622553,21.8150426 L21.8394468,26.7502128 L24.5798085,33.6448085 L24.1058936,35.5058298 L22.0764043,36.3513191 L17.783617,36.3513191 L19.9146596,34.4902979 L22.3472128,34.423383 L18.1890426,27.0887234 L19.2384255,23.1651489 Z" id="Fill-2"></path>
                            <path d="M16.5689149,23.0667447 L16.5689149,35.3365745 L15.2495106,36.3513191 L10.753617,36.3513191 L12.6138511,34.3895319 L14.8432979,34.3556809 L13.4876809,26.9934681 L16.095,23.0667447 L16.5689149,23.0667447 Z" id="Fill-3"></path>
                        </g>
                    </g>
                </g>
            </g>
        </g>
    </g>
</svg>