<?xml version="1.0" encoding="UTF-8" standalone="no"?>
<svg width="80px" height="105px" viewBox="0 0 80 105" version="1.1" xmlns="http://www.w3.org/2000/svg" xmlns:xlink="http://www.w3.org/1999/xlink" xmlns:sketch="http://www.bohemiancoding.com/sketch/ns">
    <!-- Generator: Sketch 3.3.2 (12043) - http://www.bohemiancoding.com/sketch -->
    <title>xolv.io</title>
    <desc>Created with Sketch.</desc>
    <defs></defs>
    <g id="Page-1" stroke="none" stroke-width="1" fill="none" fill-rule="evenodd" sketch:type="MSPage">
        <g id="Chimp" sketch:type="MSArtboardGroup" transform="translate(-680.000000, -2343.000000)">
            <g id="Footer" sketch:type="MSLayerGroup" transform="translate(0.000000, 2197.000000)">
                <g id="xolv.io-+-Simian-is-brought-to" transform="translate(538.000000, 146.000000)" sketch:type="MSShapeGroup">
                    <g id="xolv.io" transform="translate(141.000000, 0.000000)">
                        <rect id="Rectangle-8" fill="#FFFFFF" x="1" y="0" width="80" height="80"></rect>
                        <path d="M43.7423537,39.6881649 L63.2553191,57.1914894 L57.3776596,57.1914894 L40.846742,42.3676862 L24.8776596,57.1914894 L19,57.1914894 L37.8646941,39.6881649 L20.3829787,24 L26.2606383,24 L40.7386968,37.0086436 L54.7629654,24 L60.640625,24 L43.7423537,39.6881649 Z" id="X" fill="#FF8047"></path>
                        <path d="M13.0839844,104 L15.7089844,104 L9.65917969,97.980957 L15.421875,92.1875 L12.796875,92.1875 L8.39794922,96.7504883 L3.89648438,92.1875 L1.27148438,92.1875 L7.03417969,97.9912109 L0.984375,104 L3.609375,104 L8.34667969,99.0576172 L13.0839844,104 Z M16.6933594,98.0117188 C16.6933594,96.8017518 16.8232409,95.8002969 17.0830078,95.0073242 C17.3427747,94.2143515 17.7597628,93.5854515 18.3339844,93.1206055 C18.908206,92.6557594 19.6533157,92.3293466 20.5693359,92.1413574 C21.4853561,91.9533682 22.5996028,91.859375 23.9121094,91.859375 C25.2246159,91.859375 26.3388626,91.9533682 27.2548828,92.1413574 C28.170903,92.3293466 28.9160128,92.6557594 29.4902344,93.1206055 C30.064456,93.5854515 30.481444,94.2143515 30.7412109,95.0073242 C31.0009779,95.8002969 31.1308594,96.8017518 31.1308594,98.0117188 C31.1308594,99.2216857 31.0009779,100.226559 30.7412109,101.026367 C30.481444,101.826176 30.064456,102.461912 29.4902344,102.933594 C28.9160128,103.405276 28.170903,103.738524 27.2548828,103.93335 C26.3388626,104.128175 25.2246159,104.225586 23.9121094,104.225586 C22.5996028,104.225586 21.4853561,104.128175 20.5693359,103.93335 C19.6533157,103.738524 18.908206,103.405276 18.3339844,102.933594 C17.7597628,102.461912 17.3427747,101.826176 17.0830078,101.026367 C16.8232409,100.226559 16.6933594,99.2216857 16.6933594,98.0117188 L16.6933594,98.0117188 Z M18.6621094,98.0117188 C18.6621094,98.667972 18.6860349,99.2387671 18.7338867,99.7241211 C18.7817385,100.209475 18.8723138,100.626463 19.0056152,100.975098 C19.1389167,101.323732 19.3251941,101.607421 19.5644531,101.826172 C19.8037121,102.044923 20.1181621,102.219238 20.5078125,102.349121 C20.8974629,102.479005 21.3708468,102.567871 21.9279785,102.615723 C22.4851102,102.663574 23.1464805,102.6875 23.9121094,102.6875 C24.5683627,102.6875 25.1545384,102.672119 25.6706543,102.641357 C26.1867702,102.610596 26.6379375,102.540528 27.0241699,102.431152 C27.4104023,102.321777 27.740233,102.166261 28.0136719,101.9646 C28.2871107,101.762938 28.5075675,101.487795 28.6750488,101.13916 C28.8425301,100.790526 28.9655758,100.361575 29.0441895,99.8522949 C29.1228031,99.343015 29.1621094,98.7294958 29.1621094,98.0117188 C29.1621094,97.3076137 29.1228031,96.7077661 29.0441895,96.2121582 C28.9655758,95.7165503 28.8425301,95.3012712 28.6750488,94.9663086 C28.5075675,94.631346 28.2871107,94.3664561 28.0136719,94.1716309 C27.740233,93.9768057 27.4104023,93.8298345 27.0241699,93.7307129 C26.6379375,93.6315913 26.1867702,93.5683595 25.6706543,93.5410156 C25.1545384,93.5136717 24.5683627,93.5 23.9121094,93.5 C23.2558561,93.5 22.6696803,93.5136717 22.1535645,93.5410156 C21.6374486,93.5683595 21.1862812,93.6315913 20.8000488,93.7307129 C20.4138164,93.8298345 20.0839857,93.9768057 19.8105469,94.1716309 C19.537108,94.3664561 19.3166512,94.631346 19.1491699,94.9663086 C18.9816886,95.3012712 18.858643,95.7165503 18.7800293,96.2121582 C18.7014156,96.7077661 18.6621094,97.3076137 18.6621094,98.0117188 L18.6621094,98.0117188 Z M34.0839844,88.25 L36.0527344,88.25 L36.0527344,104 L34.0839844,104 L34.0839844,88.25 Z M44.9121094,104 L47.5371094,104 L53.7714844,92.1875 L51.4746094,92.1875 L46.2246094,102.6875 L40.9746094,92.1875 L38.6777344,92.1875 L44.9121094,104 Z M57.7089844,104 L55.7402344,104 L55.7402344,102.03125 L57.7089844,102.03125 L57.7089844,104 Z M60.9902344,92.1875 L62.9589844,92.1875 L62.9589844,104 L60.9902344,104 L60.9902344,92.1875 Z M62.9589844,90.21875 L60.9902344,90.21875 L60.9902344,88.25 L62.9589844,88.25 L62.9589844,90.21875 Z M65.9121094,98.0117188 C65.9121094,96.8017518 66.0419909,95.8002969 66.3017578,95.0073242 C66.5615247,94.2143515 66.9785128,93.5854515 67.5527344,93.1206055 C68.126956,92.6557594 68.8720657,92.3293466 69.7880859,92.1413574 C70.7041061,91.9533682 71.8183528,91.859375 73.1308594,91.859375 C74.4433659,91.859375 75.5576126,91.9533682 76.4736328,92.1413574 C77.389653,92.3293466 78.1347628,92.6557594 78.7089844,93.1206055 C79.283206,93.5854515 79.700194,94.2143515 79.9599609,95.0073242 C80.2197279,95.8002969 80.3496094,96.8017518 80.3496094,98.0117188 C80.3496094,99.2216857 80.2197279,100.226559 79.9599609,101.026367 C79.700194,101.826176 79.283206,102.461912 78.7089844,102.933594 C78.1347628,103.405276 77.389653,103.738524 76.4736328,103.93335 C75.5576126,104.128175 74.4433659,104.225586 73.1308594,104.225586 C71.8183528,104.225586 70.7041061,104.128175 69.7880859,103.93335 C68.8720657,103.738524 68.126956,103.405276 67.5527344,102.933594 C66.9785128,102.461912 66.5615247,101.826176 66.3017578,101.026367 C66.0419909,100.226559 65.9121094,99.2216857 65.9121094,98.0117188 L65.9121094,98.0117188 Z M67.8808594,98.0117188 C67.8808594,98.667972 67.9047849,99.2387671 67.9526367,99.7241211 C68.0004885,100.209475 68.0910638,100.626463 68.2243652,100.975098 C68.3576667,101.323732 68.5439441,101.607421 68.7832031,101.826172 C69.0224621,102.044923 69.3369121,102.219238 69.7265625,102.349121 C70.1162129,102.479005 70.5895968,102.567871 71.1467285,102.615723 C71.7038602,102.663574 72.3652305,102.6875 73.1308594,102.6875 C73.7871127,102.6875 74.3732884,102.672119 74.8894043,102.641357 C75.4055202,102.610596 75.8566875,102.540528 76.2429199,102.431152 C76.6291523,102.321777 76.958983,102.166261 77.2324219,101.9646 C77.5058607,101.762938 77.7263175,101.487795 77.8937988,101.13916 C78.0612801,100.790526 78.1843258,100.361575 78.2629395,99.8522949 C78.3415531,99.343015 78.3808594,98.7294958 78.3808594,98.0117188 C78.3808594,97.3076137 78.3415531,96.7077661 78.2629395,96.2121582 C78.1843258,95.7165503 78.0612801,95.3012712 77.8937988,94.9663086 C77.7263175,94.631346 77.5058607,94.3664561 77.2324219,94.1716309 C76.958983,93.9768057 76.6291523,93.8298345 76.2429199,93.7307129 C75.8566875,93.6315913 75.4055202,93.5683595 74.8894043,93.5410156 C74.3732884,93.5136717 73.7871127,93.5 73.1308594,93.5 C72.4746061,93.5 71.8884303,93.5136717 71.3723145,93.5410156 C70.8561986,93.5683595 70.4050312,93.6315913 70.0187988,93.7307129 C69.6325664,93.8298345 69.3027357,93.9768057 69.0292969,94.1716309 C68.755858,94.3664561 68.5354012,94.631346 68.3679199,94.9663086 C68.2004386,95.3012712 68.077393,95.7165503 67.9987793,96.2121582 C67.9201656,96.7077661 67.8808594,97.3076137 67.8808594,98.0117188 L67.8808594,98.0117188 Z" fill="#FFFFFF"></path>
                    </g>
                </g>
            </g>
        </g>
    </g>
</svg>